<svg xmlns="http://www.w3.org/2000/svg" xmlns:xlink="http://www.w3.org/1999/xlink" width="379" zoomAndPan="magnify" viewBox="0 0 284.25 200.249992" height="267" preserveAspectRatio="xMidYMid meet" version="1.0"><defs><g/><clipPath id="bb5cae0f04"><path d="M 0.15625 0 L 283.347656 0 L 283.347656 199.503906 L 0.15625 199.503906 Z M 0.15625 0 " clip-rule="nonzero"/></clipPath><clipPath id="039108f7b9"><path d="M 141.097656 0 L 239.070312 0 L 239.070312 130.921875 L 141.097656 130.921875 Z M 141.097656 0 " clip-rule="nonzero"/></clipPath><clipPath id="690acc55f9"><path d="M 43.726562 0 L 141.703125 0 L 141.703125 130.921875 L 43.726562 130.921875 Z M 43.726562 0 " clip-rule="nonzero"/></clipPath></defs><g clip-path="url(#bb5cae0f04)"><path fill="#ffffff" d="M 0.15625 0 L 283.347656 0 L 283.347656 199.503906 L 0.15625 199.503906 Z M 0.15625 0 " fill-opacity="1" fill-rule="nonzero"/></g><g clip-path="url(#039108f7b9)"><path fill="#9d72ff" d="M 74.332031 105.417969 L 74.332031 40.539062 L 82.992188 40.539062 L 82.992188 32.132812 L 74.214844 32.132812 C 69.65625 32.136719 65.925781 35.863281 65.925781 40.425781 L 65.925781 105.53125 C 65.925781 110.089844 69.65625 113.820312 74.214844 113.820312 L 129.84375 113.820312 C 122.070312 110.515625 113.90625 108.148438 105.5625 106.785156 C 103.476562 106.445312 101.375 106.167969 99.265625 105.949219 C 97.558594 105.773438 95.851562 105.640625 94.136719 105.550781 C 92.820312 105.480469 91.5 105.4375 90.179688 105.417969 L 86.375 105.417969 L 82.992188 105.4375 L 82.992188 105.417969 Z M 175.714844 89.3125 C 165.769531 94.089844 156.332031 99.871094 147.546875 106.566406 C 155.835938 96.59375 165.292969 87.671875 175.714844 79.988281 L 175.714844 13.453125 C 164.992188 16.546875 154.898438 21.609375 145.964844 28.414062 C 154.359375 19.707031 164.511719 12.929688 175.714844 8.511719 C 177.871094 7.660156 180.066406 6.894531 182.296875 6.222656 L 182.296875 86.328125 C 180.078125 87.273438 177.882812 88.269531 175.714844 89.3125 Z M 207.722656 105.417969 L 207.722656 49.257812 C 207.945312 49.273438 208.167969 49.28125 208.390625 49.28125 L 216.128906 49.28125 L 216.128906 105.527344 C 216.128906 110.089844 212.394531 113.820312 207.835938 113.820312 L 152.210938 113.820312 C 159.984375 110.511719 168.148438 108.144531 176.492188 106.78125 C 178.578125 106.441406 180.679688 106.164062 182.785156 105.949219 C 184.492188 105.773438 186.203125 105.640625 187.917969 105.550781 C 189.234375 105.476562 190.554688 105.433594 191.875 105.414062 L 195.679688 105.414062 L 199.058594 105.4375 L 199.058594 105.414062 L 207.722656 105.414062 Z M 187.660156 93.886719 L 187.660156 20.367188 L 194.246094 20.367188 L 194.246094 100.59375 C 192.046875 100.574219 189.851562 100.628906 187.660156 100.742188 C 185.871094 100.839844 184.078125 100.976562 182.296875 101.15625 C 180.09375 101.382812 177.898438 101.671875 175.714844 102.03125 C 165.746094 103.660156 156.019531 106.65625 146.816406 110.957031 C 155.398438 104.140625 165.230469 99.15625 175.714844 96.25 C 177.882812 95.652344 180.078125 95.136719 182.296875 94.71875 C 184.070312 94.382812 185.859375 94.105469 187.660156 93.886719 Z M 119.894531 123.078125 L 134.878906 123.078125 L 134.878906 120.855469 C 134.878906 119.734375 135.921875 118.820312 137.191406 118.820312 L 144.863281 118.820312 C 146.132812 118.820312 147.171875 119.738281 147.171875 120.855469 L 147.171875 123.078125 L 162.160156 123.078125 C 164.140625 123.078125 165.761719 124.511719 165.761719 126.261719 L 165.761719 128.101562 C 165.761719 129.851562 164.140625 131.28125 162.160156 131.28125 L 119.894531 131.28125 C 117.914062 131.28125 116.289062 129.851562 116.289062 128.101562 L 116.289062 126.261719 C 116.289062 124.511719 117.914062 123.078125 119.894531 123.078125 Z M 94.390625 93.886719 L 94.390625 20.367188 L 87.808594 20.367188 L 87.808594 100.59375 C 90.007812 100.574219 92.203125 100.628906 94.390625 100.742188 C 96.183594 100.839844 97.972656 100.976562 99.757812 101.15625 C 101.960938 101.382812 104.15625 101.671875 106.339844 102.03125 C 116.304688 103.660156 126.03125 106.65625 135.238281 110.957031 C 126.65625 104.140625 116.820312 99.15625 106.339844 96.25 C 104.171875 95.652344 101.976562 95.136719 99.757812 94.71875 C 97.980469 94.382812 96.195312 94.105469 94.390625 93.886719 Z M 218.519531 0.0273438 L 224.398438 0.0273438 C 224.855469 0.0273438 225.230469 0.398438 225.230469 0.859375 L 225.230469 6.738281 C 225.230469 7.195312 224.855469 7.570312 224.398438 7.570312 L 218.519531 7.570312 C 218.0625 7.570312 217.6875 7.195312 217.6875 6.738281 L 217.6875 0.859375 C 217.6875 0.398438 218.0625 0.0273438 218.519531 0.0273438 Z M 208.390625 21.675781 L 222.925781 21.675781 C 223.152344 21.675781 223.351562 21.59375 223.515625 21.433594 L 226.519531 18.425781 C 226.679688 18.265625 226.761719 18.070312 226.761719 17.839844 L 226.761719 9.933594 C 226.761719 9.476562 227.136719 9.101562 227.59375 9.101562 L 238.503906 9.101562 C 238.964844 9.101562 239.335938 9.476562 239.335938 9.933594 L 239.335938 20.84375 C 239.335938 21.300781 238.964844 21.675781 238.503906 21.675781 L 230.597656 21.675781 C 230.371094 21.675781 230.171875 21.757812 230.011719 21.917969 L 227.007812 24.921875 C 226.84375 25.085938 226.761719 25.28125 226.761719 25.511719 L 226.761719 40.046875 C 226.761719 40.503906 226.386719 40.878906 225.929688 40.878906 L 208.390625 40.878906 C 207.933594 40.878906 207.558594 40.503906 207.558594 40.046875 L 207.558594 22.507812 C 207.558594 22.046875 207.933594 21.675781 208.390625 21.675781 Z M 106.339844 89.3125 C 116.285156 94.089844 125.722656 99.871094 134.503906 106.566406 C 126.214844 96.59375 116.757812 87.671875 106.339844 79.988281 L 106.339844 13.453125 C 117.0625 16.546875 127.15625 21.609375 136.089844 28.414062 C 127.691406 19.707031 117.542969 12.929688 106.339844 8.511719 C 104.179688 7.660156 101.984375 6.894531 99.753906 6.222656 L 99.753906 86.328125 C 101.976562 87.273438 104.167969 88.269531 106.339844 89.3125 Z M 106.339844 89.3125 " fill-opacity="1" fill-rule="evenodd"/></g><g clip-path="url(#690acc55f9)"><path fill="#9d72ff" d="M 208.726562 105.417969 L 208.726562 40.539062 L 200.0625 40.539062 L 200.0625 32.132812 L 208.839844 32.132812 C 213.398438 32.136719 217.132812 35.863281 217.132812 40.425781 L 217.132812 105.53125 C 217.132812 110.089844 213.398438 113.820312 208.839844 113.820312 L 153.210938 113.820312 C 160.988281 110.515625 169.148438 108.148438 177.492188 106.785156 C 179.582031 106.445312 181.683594 106.167969 183.789062 105.949219 C 185.496094 105.773438 187.203125 105.640625 188.917969 105.550781 C 190.238281 105.480469 191.558594 105.4375 192.875 105.417969 L 196.679688 105.417969 L 200.0625 105.4375 L 200.0625 105.417969 Z M 107.34375 89.3125 C 117.285156 94.089844 126.722656 99.871094 135.507812 106.566406 C 127.21875 96.59375 117.761719 87.671875 107.34375 79.988281 L 107.34375 13.453125 C 118.066406 16.546875 128.15625 21.609375 137.09375 28.414062 C 128.699219 19.707031 118.546875 12.929688 107.34375 8.511719 C 105.183594 7.660156 102.992188 6.894531 100.757812 6.222656 L 100.757812 86.328125 C 102.976562 87.273438 105.171875 88.269531 107.34375 89.3125 Z M 75.332031 105.417969 L 75.332031 49.257812 C 75.113281 49.273438 74.886719 49.28125 74.664062 49.28125 L 66.929688 49.28125 L 66.929688 105.527344 C 66.929688 110.089844 70.660156 113.820312 75.21875 113.820312 L 130.847656 113.820312 C 123.070312 110.511719 114.910156 108.144531 106.566406 106.78125 C 104.476562 106.441406 102.375 106.164062 100.269531 105.949219 C 98.5625 105.773438 96.851562 105.640625 95.140625 105.550781 C 93.820312 105.476562 92.5 105.433594 91.183594 105.414062 L 87.378906 105.414062 L 83.996094 105.4375 L 83.996094 105.414062 L 75.332031 105.414062 Z M 95.394531 93.886719 L 95.394531 20.367188 L 88.8125 20.367188 L 88.8125 100.59375 C 91.011719 100.574219 93.203125 100.628906 95.394531 100.742188 C 97.1875 100.839844 98.976562 100.976562 100.757812 101.15625 C 102.964844 101.382812 105.15625 101.671875 107.34375 102.03125 C 117.308594 103.660156 127.035156 106.65625 136.238281 110.957031 C 127.65625 104.140625 117.824219 99.15625 107.34375 96.25 C 105.171875 95.652344 102.980469 95.136719 100.757812 94.71875 C 98.984375 94.382812 97.195312 94.105469 95.394531 93.886719 Z M 163.160156 123.078125 L 148.175781 123.078125 L 148.175781 120.855469 C 148.175781 119.734375 147.136719 118.820312 145.863281 118.820312 L 138.191406 118.820312 C 136.921875 118.820312 135.882812 119.738281 135.882812 120.855469 L 135.882812 123.078125 L 120.898438 123.078125 C 118.914062 123.078125 117.292969 124.511719 117.292969 126.261719 L 117.292969 128.101562 C 117.292969 129.851562 118.914062 131.28125 120.898438 131.28125 L 163.160156 131.28125 C 165.144531 131.28125 166.765625 129.851562 166.765625 128.101562 L 166.765625 126.261719 C 166.765625 124.511719 165.144531 123.078125 163.160156 123.078125 Z M 188.664062 93.886719 L 188.664062 20.367188 L 195.246094 20.367188 L 195.246094 100.59375 C 193.046875 100.574219 190.855469 100.628906 188.664062 100.742188 C 186.871094 100.839844 185.082031 100.976562 183.300781 101.15625 C 181.09375 101.382812 178.902344 101.671875 176.714844 102.03125 C 166.75 103.660156 157.023438 106.65625 147.820312 110.957031 C 156.398438 104.140625 166.234375 99.15625 176.714844 96.25 C 178.882812 95.652344 181.082031 95.136719 183.300781 94.71875 C 185.074219 94.382812 186.863281 94.105469 188.664062 93.886719 Z M 64.535156 0.0273438 L 58.660156 0.0273438 C 58.199219 0.0273438 57.824219 0.398438 57.824219 0.859375 L 57.824219 6.738281 C 57.824219 7.195312 58.199219 7.570312 58.660156 7.570312 L 64.535156 7.570312 C 64.996094 7.570312 65.371094 7.195312 65.371094 6.738281 L 65.371094 0.859375 C 65.371094 0.398438 64.996094 0.0273438 64.535156 0.0273438 Z M 74.664062 21.675781 L 60.132812 21.675781 C 59.902344 21.675781 59.703125 21.59375 59.542969 21.433594 L 56.539062 18.425781 C 56.375 18.265625 56.292969 18.070312 56.292969 17.839844 L 56.292969 9.933594 C 56.292969 9.476562 55.921875 9.101562 55.460938 9.101562 L 44.550781 9.101562 C 44.09375 9.101562 43.71875 9.476562 43.71875 9.933594 L 43.71875 20.84375 C 43.71875 21.300781 44.09375 21.675781 44.550781 21.675781 L 52.457031 21.675781 C 52.6875 21.675781 52.882812 21.757812 53.046875 21.917969 L 56.050781 24.921875 C 56.210938 25.085938 56.292969 25.28125 56.292969 25.511719 L 56.292969 40.046875 C 56.292969 40.503906 56.667969 40.878906 57.125 40.878906 L 74.664062 40.878906 C 75.121094 40.878906 75.496094 40.503906 75.496094 40.046875 L 75.496094 22.507812 C 75.496094 22.046875 75.121094 21.675781 74.664062 21.675781 Z M 176.714844 89.3125 C 166.773438 94.089844 157.332031 99.871094 148.550781 106.566406 C 156.839844 96.59375 166.296875 87.671875 176.714844 79.988281 L 176.714844 13.453125 C 165.996094 16.546875 155.902344 21.609375 146.96875 28.414062 C 155.363281 19.707031 165.515625 12.929688 176.71875 8.511719 C 178.875 7.660156 181.070312 6.894531 183.300781 6.222656 L 183.300781 86.328125 C 181.082031 87.273438 178.886719 88.269531 176.714844 89.3125 Z M 176.714844 89.3125 " fill-opacity="1" fill-rule="evenodd"/></g><g fill="#faf9ff" fill-opacity="1"><g transform="translate(126.166828, 191.875059)"><g><path d="M 5.390625 -0.171875 C 5.390625 -0.0859375 5.351562 -0.0351562 5.28125 -0.015625 C 5.144531 0.00390625 4.882812 0.0234375 4.5 0.046875 C 4.125 0.0664062 3.675781 0.078125 3.15625 0.078125 C 2.863281 0.078125 2.582031 0.0546875 2.3125 0.015625 C 2.039062 -0.0234375 1.789062 -0.113281 1.5625 -0.25 C 1.34375 -0.394531 1.164062 -0.597656 1.03125 -0.859375 C 0.90625 -1.128906 0.84375 -1.488281 0.84375 -1.9375 L 0.84375 -7.84375 C 0.84375 -7.90625 0.863281 -7.957031 0.90625 -8 C 0.957031 -8.039062 1.007812 -8.0625 1.0625 -8.0625 L 1.625 -8.0625 C 1.675781 -8.0625 1.722656 -8.039062 1.765625 -8 C 1.804688 -7.957031 1.828125 -7.90625 1.828125 -7.84375 L 1.828125 -1.9375 C 1.828125 -1.664062 1.859375 -1.445312 1.921875 -1.28125 C 1.984375 -1.113281 2.109375 -0.992188 2.296875 -0.921875 C 2.492188 -0.847656 2.785156 -0.8125 3.171875 -0.8125 L 5.265625 -0.8125 C 5.347656 -0.8125 5.390625 -0.769531 5.390625 -0.6875 Z M 5.390625 -0.171875 "/></g></g></g><g fill="#faf9ff" fill-opacity="1"><g transform="translate(133.572065, 191.875059)"><g><path d="M 6.140625 -0.21875 C 6.140625 -0.164062 6.117188 -0.113281 6.078125 -0.0625 C 6.046875 -0.0195312 6.003906 0 5.953125 0 L 5.359375 0 C 5.304688 0 5.257812 -0.0195312 5.21875 -0.0625 C 5.175781 -0.101562 5.15625 -0.15625 5.15625 -0.21875 L 5.15625 -3.4375 L 1.828125 -3.4375 L 1.828125 -0.21875 C 1.828125 -0.164062 1.8125 -0.113281 1.78125 -0.0625 C 1.75 -0.0195312 1.703125 0 1.640625 0 L 1.046875 0 C 0.992188 0 0.945312 -0.0195312 0.90625 -0.0625 C 0.863281 -0.113281 0.84375 -0.164062 0.84375 -0.21875 L 0.84375 -5.890625 C 0.84375 -6.722656 1.035156 -7.304688 1.421875 -7.640625 C 1.816406 -7.972656 2.40625 -8.140625 3.1875 -8.140625 L 3.8125 -8.140625 C 4.582031 -8.140625 5.160156 -7.972656 5.546875 -7.640625 C 5.941406 -7.304688 6.140625 -6.722656 6.140625 -5.890625 Z M 5.15625 -4.296875 L 5.15625 -5.890625 C 5.15625 -6.273438 5.109375 -6.566406 5.015625 -6.765625 C 4.929688 -6.960938 4.789062 -7.097656 4.59375 -7.171875 C 4.40625 -7.242188 4.144531 -7.28125 3.8125 -7.28125 L 3.1875 -7.28125 C 2.851562 -7.28125 2.585938 -7.242188 2.390625 -7.171875 C 2.191406 -7.097656 2.046875 -6.960938 1.953125 -6.765625 C 1.867188 -6.566406 1.828125 -6.273438 1.828125 -5.890625 L 1.828125 -4.296875 Z M 5.15625 -4.296875 "/></g></g></g><g fill="#faf9ff" fill-opacity="1"><g transform="translate(142.388608, 191.875059)"><g><path d="M 6.140625 -2.21875 C 6.140625 -1.769531 6.054688 -1.394531 5.890625 -1.09375 C 5.722656 -0.800781 5.488281 -0.566406 5.1875 -0.390625 C 4.894531 -0.210938 4.554688 -0.0859375 4.171875 -0.015625 C 3.796875 0.046875 3.394531 0.078125 2.96875 0.078125 C 2.613281 0.078125 2.28125 0.0664062 1.96875 0.046875 C 1.664062 0.0234375 1.410156 0.00390625 1.203125 -0.015625 C 1.078125 -0.0351562 0.984375 -0.0703125 0.921875 -0.125 C 0.867188 -0.1875 0.84375 -0.285156 0.84375 -0.421875 L 0.84375 -7.65625 C 0.84375 -7.90625 0.957031 -8.039062 1.1875 -8.0625 C 1.375 -8.082031 1.617188 -8.097656 1.921875 -8.109375 C 2.234375 -8.128906 2.566406 -8.140625 2.921875 -8.140625 C 3.503906 -8.140625 4.035156 -8.078125 4.515625 -7.953125 C 4.992188 -7.835938 5.378906 -7.628906 5.671875 -7.328125 C 5.960938 -7.023438 6.109375 -6.597656 6.109375 -6.046875 L 6.109375 -5.875 C 6.109375 -5.476562 6.003906 -5.128906 5.796875 -4.828125 C 5.597656 -4.535156 5.3125 -4.316406 4.9375 -4.171875 C 5.3125 -4.035156 5.601562 -3.8125 5.8125 -3.5 C 6.03125 -3.195312 6.140625 -2.832031 6.140625 -2.40625 Z M 5.109375 -5.875 L 5.109375 -6.046875 C 5.109375 -6.390625 5.019531 -6.648438 4.84375 -6.828125 C 4.664062 -7.015625 4.410156 -7.140625 4.078125 -7.203125 C 3.742188 -7.273438 3.359375 -7.3125 2.921875 -7.3125 C 2.742188 -7.3125 2.554688 -7.304688 2.359375 -7.296875 C 2.171875 -7.285156 2 -7.28125 1.84375 -7.28125 L 1.84375 -4.578125 L 3.515625 -4.578125 C 3.929688 -4.578125 4.253906 -4.632812 4.484375 -4.75 C 4.722656 -4.875 4.882812 -5.035156 4.96875 -5.234375 C 5.0625 -5.429688 5.109375 -5.644531 5.109375 -5.875 Z M 5.15625 -2.21875 L 5.15625 -2.40625 C 5.15625 -2.644531 5.109375 -2.867188 5.015625 -3.078125 C 4.921875 -3.296875 4.753906 -3.46875 4.515625 -3.59375 C 4.273438 -3.726562 3.941406 -3.796875 3.515625 -3.796875 L 1.84375 -3.796875 L 1.84375 -0.796875 C 2.03125 -0.796875 2.21875 -0.789062 2.40625 -0.78125 C 2.59375 -0.769531 2.78125 -0.765625 2.96875 -0.765625 C 3.425781 -0.765625 3.816406 -0.804688 4.140625 -0.890625 C 4.460938 -0.972656 4.710938 -1.117188 4.890625 -1.328125 C 5.066406 -1.535156 5.15625 -1.832031 5.15625 -2.21875 Z M 5.15625 -2.21875 "/></g></g></g><g fill="#faf9ff" fill-opacity="1"><g transform="translate(150.901181, 191.875059)"><g><path d="M 5.4375 -2.09375 C 5.4375 -1.832031 5.394531 -1.570312 5.3125 -1.3125 C 5.226562 -1.0625 5.085938 -0.828125 4.890625 -0.609375 C 4.691406 -0.398438 4.414062 -0.234375 4.0625 -0.109375 C 3.71875 0.015625 3.28125 0.078125 2.75 0.078125 C 2.375 0.078125 2.035156 0.0625 1.734375 0.03125 C 1.441406 0 1.175781 -0.0351562 0.9375 -0.078125 C 0.84375 -0.0859375 0.785156 -0.109375 0.765625 -0.140625 C 0.742188 -0.171875 0.734375 -0.210938 0.734375 -0.265625 L 0.734375 -0.703125 C 0.734375 -0.765625 0.75 -0.804688 0.78125 -0.828125 C 0.820312 -0.859375 0.867188 -0.875 0.921875 -0.875 C 0.929688 -0.875 0.9375 -0.875 0.9375 -0.875 C 0.9375 -0.875 0.941406 -0.875 0.953125 -0.875 C 1.203125 -0.851562 1.5 -0.835938 1.84375 -0.828125 C 2.195312 -0.816406 2.5 -0.8125 2.75 -0.8125 C 3.1875 -0.8125 3.519531 -0.863281 3.75 -0.96875 C 3.988281 -1.082031 4.15625 -1.234375 4.25 -1.421875 C 4.34375 -1.617188 4.390625 -1.84375 4.390625 -2.09375 C 4.390625 -2.28125 4.347656 -2.441406 4.265625 -2.578125 C 4.191406 -2.722656 4.0625 -2.867188 3.875 -3.015625 C 3.6875 -3.171875 3.425781 -3.347656 3.09375 -3.546875 L 2.046875 -4.1875 C 1.546875 -4.488281 1.171875 -4.796875 0.921875 -5.109375 C 0.671875 -5.421875 0.546875 -5.789062 0.546875 -6.21875 C 0.546875 -6.875 0.769531 -7.359375 1.21875 -7.671875 C 1.675781 -7.984375 2.316406 -8.140625 3.140625 -8.140625 C 3.359375 -8.140625 3.585938 -8.132812 3.828125 -8.125 C 4.066406 -8.113281 4.289062 -8.097656 4.5 -8.078125 C 4.71875 -8.054688 4.894531 -8.035156 5.03125 -8.015625 C 5.15625 -7.992188 5.21875 -7.929688 5.21875 -7.828125 L 5.21875 -7.359375 C 5.21875 -7.242188 5.15625 -7.1875 5.03125 -7.1875 C 5.019531 -7.1875 5.015625 -7.1875 5.015625 -7.1875 C 5.015625 -7.1875 5.007812 -7.1875 5 -7.1875 C 4.757812 -7.195312 4.46875 -7.207031 4.125 -7.21875 C 3.78125 -7.238281 3.453125 -7.25 3.140625 -7.25 C 2.578125 -7.25 2.171875 -7.175781 1.921875 -7.03125 C 1.671875 -6.882812 1.546875 -6.613281 1.546875 -6.21875 C 1.546875 -5.96875 1.640625 -5.75 1.828125 -5.5625 C 2.015625 -5.375 2.3125 -5.15625 2.71875 -4.90625 L 3.71875 -4.3125 C 4.351562 -3.9375 4.796875 -3.582031 5.046875 -3.25 C 5.304688 -2.914062 5.4375 -2.53125 5.4375 -2.09375 Z M 5.4375 -2.09375 "/></g></g></g><g fill="#ffffff" fill-opacity="1"><g transform="translate(24.989365, 168.895206)"><g><path d="M 13.953125 -11.390625 L 13.953125 -7.96875 L 20 -7.96875 L 20 -4.109375 C 18.828125 -3.671875 17.0625 -3.234375 15.0625 -3.234375 C 10.546875 -3.234375 7.21875 -6.453125 7.21875 -10.796875 C 7.21875 -15.25 10.34375 -18.453125 15.4375 -18.453125 C 18.296875 -18.453125 21.109375 -17.03125 21.109375 -17.03125 L 22.4375 -20.3125 C 22.4375 -20.3125 19.625 -22.0625 14.78125 -22.0625 C 8.359375 -22.0625 3.09375 -17.125 3.09375 -10.859375 C 3.09375 -4.4375 7.96875 0.375 15.3125 0.375 C 20.453125 0.375 23.703125 -2.09375 23.703125 -2.09375 L 23.703125 -11.390625 Z M 13.953125 -11.390625 "/></g></g></g><g fill="#ffffff" fill-opacity="1"><g transform="translate(51.46333, 168.895206)"><g><path d="M 3.09375 -10.859375 C 3.09375 -4.4375 8.03125 0.34375 14.65625 0.34375 C 21.296875 0.34375 26.265625 -4.46875 26.265625 -10.859375 C 26.265625 -17.34375 21.390625 -22.0625 14.65625 -22.0625 C 8.140625 -22.0625 3.09375 -17.125 3.09375 -10.859375 Z M 7.21875 -10.796875 C 7.21875 -15.25 10.40625 -18.609375 14.6875 -18.609375 C 19.046875 -18.609375 22.15625 -15.25 22.15625 -10.796875 C 22.15625 -6.390625 18.890625 -3.03125 14.6875 -3.03125 C 10.5 -3.03125 7.21875 -6.453125 7.21875 -10.796875 Z M 7.21875 -10.796875 "/></g></g></g><g fill="#ffffff" fill-opacity="1"><g transform="translate(80.251465, 168.895206)"><g><path d="M 4.5 0 L 18.609375 0 L 18.609375 -3.515625 L 8.328125 -3.515625 L 8.328125 -21.6875 L 4.5 -21.6875 Z M 4.5 0 "/></g></g></g><g fill="#ffffff" fill-opacity="1"><g transform="translate(100.029774, 168.895206)"><g><path d="M 4.5 0 L 12.6875 0 C 19.3125 0 24.28125 -4.65625 24.28125 -10.859375 C 24.28125 -17.15625 19.40625 -21.6875 12.6875 -21.6875 L 4.5 -21.6875 Z M 12.71875 -18.171875 C 17.0625 -18.171875 20.1875 -15.0625 20.1875 -10.796875 C 20.1875 -6.578125 16.90625 -3.515625 12.71875 -3.515625 L 8.359375 -3.515625 L 8.359375 -18.171875 Z M 12.71875 -18.171875 "/></g></g></g><g fill="#ffffff" fill-opacity="1"><g transform="translate(126.874011, 168.895206)"><g><path d="M 17.78125 -5.859375 C 17.78125 -8.703125 16.390625 -10.609375 11.546875 -12.5 C 8.484375 -13.609375 7.3125 -14.46875 7.3125 -15.859375 C 7.3125 -17.375 8.359375 -18.640625 10.640625 -18.640625 C 12.3125 -18.640625 14.21875 -17.90625 15.484375 -17.1875 L 16.71875 -20.578125 C 15.34375 -21.390625 13.046875 -22.0625 10.734375 -22.0625 C 6.109375 -22.0625 3.453125 -19.046875 3.453125 -15.765625 C 3.453125 -13.171875 4.90625 -11.171875 9.140625 -9.625 C 13.046875 -8.171875 13.859375 -7.3125 13.859375 -5.859375 C 13.859375 -4.46875 12.6875 -3.203125 10.125 -3.203125 C 8.171875 -3.203125 6.015625 -3.953125 4.234375 -5.15625 L 2.90625 -1.703125 C 4.875 -0.5 7.4375 0.375 10 0.375 C 14.84375 0.375 17.78125 -2 17.78125 -5.859375 Z M 17.78125 -5.859375 "/></g></g></g><g fill="#ffffff" fill-opacity="1"><g transform="translate(146.960883, 168.895206)"><g><path d="M 26.015625 -21.78125 L 24.3125 -21.78125 L 15.515625 -5.984375 L 6.515625 -21.78125 L 4.8125 -21.78125 L 4.203125 0 L 7.9375 0 L 8 -12.25 L 14.75 0.1875 L 16.078125 0.1875 L 22.78125 -12.46875 L 22.859375 0 L 26.625 0 Z M 26.015625 -21.78125 "/></g></g></g><g fill="#ffffff" fill-opacity="1"><g transform="translate(177.230086, 168.895206)"><g><path d="M 4.5 0 L 8.328125 0 L 8.328125 -21.6875 L 4.5 -21.6875 Z M 4.5 0 "/></g></g></g><g fill="#ffffff" fill-opacity="1"><g transform="translate(189.510497, 168.895206)"><g><path d="M 1.765625 -18.171875 L 9.015625 -18.171875 L 9.015625 0 L 12.875 0 L 12.875 -18.171875 L 20 -18.171875 L 20 -21.6875 L 1.765625 -21.6875 Z M 1.765625 -18.171875 "/></g></g></g><g fill="#ffffff" fill-opacity="1"><g transform="translate(210.708164, 168.895206)"><g><path d="M 18.921875 0 L 22.75 0 L 22.75 -21.65625 L 18.921875 -21.65625 L 18.921875 -11.9375 L 8.328125 -11.9375 L 8.328125 -21.6875 L 4.5 -21.6875 L 4.5 0 L 8.328125 0 L 8.328125 -8.546875 L 18.921875 -8.546875 Z M 18.921875 0 "/></g></g></g><g fill="#ffffff" fill-opacity="1"><g transform="translate(237.398111, 168.895206)"><g><path d="M 17.78125 -5.859375 C 17.78125 -8.703125 16.390625 -10.609375 11.546875 -12.5 C 8.484375 -13.609375 7.3125 -14.46875 7.3125 -15.859375 C 7.3125 -17.375 8.359375 -18.640625 10.640625 -18.640625 C 12.3125 -18.640625 14.21875 -17.90625 15.484375 -17.1875 L 16.71875 -20.578125 C 15.34375 -21.390625 13.046875 -22.0625 10.734375 -22.0625 C 6.109375 -22.0625 3.453125 -19.046875 3.453125 -15.765625 C 3.453125 -13.171875 4.90625 -11.171875 9.140625 -9.625 C 13.046875 -8.171875 13.859375 -7.3125 13.859375 -5.859375 C 13.859375 -4.46875 12.6875 -3.203125 10.125 -3.203125 C 8.171875 -3.203125 6.015625 -3.953125 4.234375 -5.15625 L 2.90625 -1.703125 C 4.875 -0.5 7.4375 0.375 10 0.375 C 14.84375 0.375 17.78125 -2 17.78125 -5.859375 Z M 17.78125 -5.859375 "/></g></g></g></svg>